<svg width="96" height="18" viewBox="0 0 96 18" fill="none" xmlns="http://www.w3.org/2000/svg">
<path d="M25.957 12.7613L29.5076 2.7085H31.8607L35.4308 12.7613H36.3889V14.2569H31.9004V12.7613H33.4764L32.7375 10.5276H28.5292L27.7708 12.7613H29.401V14.2569H24.9785V12.7613H25.9561H25.957ZM32.2991 9.2106L30.6249 4.22441L28.9685 9.2106H32.2999H32.2991Z" fill="black"/>
<path d="M41.3348 14.4363C39.8586 14.4363 38.4223 14.1968 37.2449 13.6584V11.5043H38.8201V12.7206C39.4794 13.0202 40.2573 13.1599 41.2738 13.1599C42.849 13.1599 43.6869 12.7012 43.6869 11.8632C43.6869 11.2648 43.2485 10.9652 42.2108 10.806L39.9974 10.5064C38.1235 10.2474 37.2246 9.44925 37.2246 8.0933C37.2246 6.47751 38.8404 5.40088 41.4135 5.40088C42.7288 5.40088 43.9662 5.58116 45.1834 6.0196V7.85038H43.6082V7.03699C43.0301 6.83723 42.2116 6.69758 41.3949 6.69758C39.9577 6.69758 39.1603 7.13602 39.1603 7.8944C39.1603 8.47334 39.5988 8.83222 40.5764 8.97188L42.8905 9.29097C44.7644 9.57029 45.6633 10.3481 45.6633 11.6643C45.6633 13.3393 43.9874 14.4371 41.3348 14.4371V14.4363Z" fill="black"/>
<path d="M52.6142 12.9009C53.2914 12.9009 54.0498 12.801 55.5267 12.3025L55.944 13.7186C54.2698 14.317 53.2313 14.4566 52.2943 14.4566C49.9802 14.4566 48.8833 13.4596 48.8833 11.7041V7.07678H45.9302V5.62096H48.8833V3.12744H50.7378V5.62096H55.4658V7.07678H50.7378V11.4248C50.7378 12.3821 51.3159 12.9009 52.6134 12.9009H52.6142Z" fill="black"/>
<path d="M65.0259 9.9484C65.0259 7.31522 67.0996 5.44043 69.7928 5.44043C72.4861 5.44043 74.5615 7.31522 74.5615 9.9484C74.5615 12.5816 72.4861 14.4564 69.7928 14.4564C67.0996 14.4564 65.0259 12.5816 65.0259 9.9484ZM72.7451 9.9484C72.7451 8.23273 71.4687 6.99613 69.792 6.99613C68.1153 6.99613 66.8406 8.23273 66.8406 9.9484C66.8406 11.6641 68.117 12.9007 69.792 12.9007C71.467 12.9007 72.7451 11.6641 72.7451 9.9484Z" fill="black"/>
<path d="M62.1491 8.13266C62.8279 7.37513 63.3654 7.11612 64.1839 7.11612C64.4623 7.11612 64.7772 7.17622 65.1953 7.3108C65.4687 6.77079 65.8157 6.27987 66.2432 5.85921C65.5677 5.58328 64.9609 5.41992 64.3828 5.41992C63.246 5.41992 62.4276 5.95824 61.6903 7.21431L60.8118 8.57025V5.61883H56.2251V7.0738H58.9573V12.7989H56.2251V14.2547H63.6845V12.7989H60.8118V9.6071L62.1483 8.13097L62.1491 8.13266Z" fill="black"/>
<path d="M91.9915 12.7955V4.3416H89.9136V2.86377H96.0009V4.3416H93.9035V12.7955H96.0009V14.2734H89.9136V12.7955H91.9915Z" fill="black"/>
<path d="M78.6708 12.7613L82.2215 2.7085H84.5745L88.1447 12.7613H89.1028V14.2569H84.6143V12.7613H86.1903L85.4514 10.5276H81.2431L80.4847 12.7613H82.1149V14.2569H77.6924V12.7613H78.67H78.6708ZM85.013 9.2106L83.3388 4.22441L81.6823 9.2106H85.0138H85.013Z" fill="black"/>
<path d="M1.74591 0.293999C1.79518 0.120669 1.96077 -0.00336212 2.13839 6.94822e-05L18.8849 0.326554C18.9976 0.328749 19.0984 0.382388 19.1581 0.472038C19.2179 0.561691 19.2299 0.677273 19.1908 0.785326L13.38 16.8294C13.3181 17.0001 13.1443 17.1126 12.9683 17.0958C12.7923 17.0789 12.6655 16.9376 12.6676 16.7612L12.7627 8.92474L12.7488 8.9414L12.551 5.75657C12.5186 5.23539 12.206 4.79453 11.7303 4.5987L9.1624 3.54171L9.16698 3.54019L1.93879 0.703143C1.77809 0.640067 1.69667 0.467359 1.74591 0.293999Z" fill="url(#paint0_linear_702_15021)"/>
<path d="M0.00104344 6.87966C-0.0124278 6.70252 0.10582 6.5302 0.281643 6.47063L9.05733 3.4984L11.7303 4.5987C12.206 4.79453 12.5185 5.23529 12.5509 5.75646L12.7525 8.99843L12.7405 9.01937L12.741 8.98175L6.7757 16.1991C6.6564 16.3434 6.45684 16.3915 6.30148 16.3134C6.14614 16.2353 6.07933 16.0532 6.14271 15.8808L8.85164 8.51676C9.07232 7.91686 8.67593 7.32128 8.04945 7.31147L0.336444 7.19068C0.155878 7.18784 0.0145416 7.05679 0.00104344 6.87966Z" fill="url(#paint1_linear_702_15021)"/>
<defs>
<linearGradient id="paint0_linear_702_15021" x1="11.874" y1="18.8048" x2="8.25359" y2="9.89631" gradientUnits="userSpaceOnUse">
<stop stop-color="#6D5BD0"/>
<stop offset="1" stop-color="#A1D1A8"/>
</linearGradient>
<linearGradient id="paint1_linear_702_15021" x1="11.412" y1="9.44488" x2="4.67796" y2="9.15039" gradientUnits="userSpaceOnUse">
<stop stop-color="#6D5BD0"/>
<stop offset="1" stop-color="#A1D1A8"/>
</linearGradient>
</defs>
</svg>
